<svg height="512pt" viewBox="0 0 512 512" width="512pt" xmlns="http://www.w3.org/2000/svg"><path d="m106 512c15.71875 0 31.042969-5.777344 44.957031-16.84375 35.394531 28.132812 76.171875 19.402344 105.042969-14.710938 32.203125 38.050782 73.128906 40.078126 105.042969 14.710938 13.914062 11.066406 29.238281 16.84375 44.957031 16.84375 29.660156 0 57.226562-22.992188 77.617188-64.746094 18.039062-36.929687 28.382812-84.769531 28.382812-131.253906s-10.34375-94.324219-28.382812-131.253906c-20.390626-41.753906-47.957032-64.746094-77.617188-64.746094-15.71875 0-31.042969 5.777344-44.957031 16.84375-17.410157-13.839844-38.398438-20.210938-60.042969-15.074219v-1.769531c0-16.542969 13.457031-30 30-30h15v-90h-15c-66.167969 0-120 53.832031-120 120v1.769531c-21.449219-5.089843-42.367188 1.027344-60.042969 15.074219-13.914062-11.066406-29.238281-16.84375-44.957031-16.84375-29.660156 0-57.226562 22.992188-77.617188 64.746094-18.039062 36.929687-28.382812 84.769531-28.382812 131.253906s10.34375 94.324219 28.382812 131.253906c20.390626 41.753906 47.957032 64.746094 77.617188 64.746094zm135-392c0-44.515625 32.488281-81.589844 75-88.75v30.648438c-25.851562 6.675781-45 30.195312-45 58.101562v16.859375c-5.226562 4.167969-10.242188 9.074219-15 14.695313-4.757812-5.621094-9.773438-10.527344-15-14.695313zm-185.660156 77.910156c14.652344-30 33.589844-47.910156 50.660156-47.910156 8.210938 0 16.324219 2.941406 24.230469 8.734375-12.019531 16.371094-21.945313 37.421875-28.867188 62.238281l28.898438 8.058594c20.894531-74.9375 72.582031-110.292969 112.921875-43.972656l12.816406 21.070312 12.816406-21.070312c40.339844-66.324219 92.03125-30.953125 112.921875 43.96875l28.894531-8.054688c-6.917968-24.816406-16.84375-45.867187-28.867187-62.238281 7.910156-5.792969 16.023437-8.734375 24.234375-8.734375 17.070312 0 36.007812 17.910156 50.660156 47.910156 16.105469 32.972656 25.339844 76.015625 25.339844 118.089844s-9.234375 85.117188-25.339844 118.089844c-14.652344 30-33.589844 47.910156-50.660156 47.910156-8.210938 0-16.324219-2.941406-24.230469-8.734375 12.019531-16.371094 21.945313-37.421875 28.867188-62.238281l-28.898438-8.058594c-20.894531 74.9375-72.582031 110.292969-112.921875 43.972656l-12.816406-21.070312-12.816406 21.070312c-40.519532 66.617188-92.136719 30.570313-112.921875-43.96875l-28.894531 8.058594c6.917968 24.8125 16.84375 45.863281 28.867187 62.234375-7.910156 5.792969-16.023437 8.734375-24.234375 8.734375-17.070312 0-36.007812-17.910156-50.660156-47.910156-16.105469-32.972656-25.339844-76.015625-25.339844-118.089844s9.234375-85.117188 25.339844-118.089844zm0 0"/></svg>